# xmcd
#
# Track frame offsets: 
#        150
#        13775
#        30531
#        41122
#        64223
#        81927
#        105354
#        118370
#        132053
#        159233
#        169063
#        185417
#        194879
#        209008
#
# Disc length: 3046 seconds
#
# Revision: 4
# Processed by: cddbd v1.5.2PL0 Copyright (c) Steve Scherf et al.
# Submitted via: ExactAudioCopy v0.99pb4
#
DISCID=c80be40e
DTITLE=Rory Block - Last Fair Deal (SACD)
DYEAR=2003
DGENRE=Blues
TTITLE0=Gone Again
TTITLE1=Sookie Sookie
TTITLE2=County Farm Blues
TTITLE3=Last Fair Deal Gone Down
TTITLE4=Declare
TTITLE5=Cry Out Loud
TTITLE6=Amazing Grace
TTITLE7=Traveling Riverside Blues
TTITLE8=Mama's Stray Baby
TTITLE9=Hallelu, Hallelu
TTITLE10=Two Places At A Table
TTITLE11=Awesome Love
TTITLE12=Look What The Lord Has Done
TTITLE13=Old Friends
EXTD=YEAR: 2003
EXTT0=
EXTT1=
EXTT2=
EXTT3=
EXTT4=
EXTT5=
EXTT6=
EXTT7=
EXTT8=
EXTT9=
EXTT10=
EXTT11=
EXTT12=
EXTT13=
PLAYORDER=
